<mxfile host="65bd71144e">
    <diagram id="MtCnADsghtARbD1xCMk6" name="ページ1">
        <mxGraphModel dx="906" dy="546" grid="1" gridSize="10" guides="1" tooltips="1" connect="1" arrows="1" fold="1" page="1" pageScale="1" pageWidth="827" pageHeight="1169" math="0" shadow="0">
            <root>
                <mxCell id="0"/>
                <mxCell id="1" parent="0"/>
                <mxCell id="3" value="" style="rounded=0;whiteSpace=wrap;html=1;fillColor=#E6E6E6;fontColor=#333333;strokeColor=#666666;" parent="1" vertex="1">
                    <mxGeometry x="40" y="40" width="760" height="480" as="geometry"/>
                </mxCell>
                <mxCell id="14" value="" style="rounded=0;whiteSpace=wrap;html=1;strokeColor=none;strokeWidth=2;fillColor=#f5f5f5;fontColor=#333333;" parent="1" vertex="1">
                    <mxGeometry x="40" y="140" width="110" height="370" as="geometry"/>
                </mxCell>
                <mxCell id="15" value="Home" style="text;html=1;align=center;verticalAlign=middle;whiteSpace=wrap;rounded=0;strokeWidth=2;fontColor=#1E0200;" parent="1" vertex="1">
                    <mxGeometry x="65" y="210" width="60" height="30" as="geometry"/>
                </mxCell>
                <mxCell id="39" value="" style="group" vertex="1" connectable="0" parent="1">
                    <mxGeometry x="40" y="40" width="760" height="80" as="geometry"/>
                </mxCell>
                <mxCell id="5" value="" style="rounded=0;whiteSpace=wrap;html=1;fillColor=#f5f5f5;fontColor=#333333;strokeColor=none;strokeWidth=0.5;" parent="39" vertex="1">
                    <mxGeometry width="760" height="30" as="geometry"/>
                </mxCell>
                <mxCell id="6" value="" style="ellipse;whiteSpace=wrap;html=1;aspect=fixed;strokeColor=none;fillColor=#BA0C00;gradientColor=none;" parent="39" vertex="1">
                    <mxGeometry x="7" y="7" width="15" height="15" as="geometry"/>
                </mxCell>
                <mxCell id="8" value="" style="ellipse;whiteSpace=wrap;html=1;aspect=fixed;strokeColor=none;fillColor=#D4E302;gradientColor=none;" parent="39" vertex="1">
                    <mxGeometry x="27" y="7" width="15" height="15" as="geometry"/>
                </mxCell>
                <mxCell id="9" value="" style="ellipse;whiteSpace=wrap;html=1;aspect=fixed;strokeColor=none;fillColor=#09D940;gradientColor=none;" parent="39" vertex="1">
                    <mxGeometry x="48" y="7.5" width="15" height="15" as="geometry"/>
                </mxCell>
                <mxCell id="17" value="" style="rounded=1;whiteSpace=wrap;html=1;fillColor=#dae8fc;strokeColor=#F0F0F0;strokeWidth=0.5;" vertex="1" parent="39">
                    <mxGeometry x="232" y="5" width="130" height="25" as="geometry"/>
                </mxCell>
                <mxCell id="19" value="" style="rounded=1;whiteSpace=wrap;html=1;fillColor=#dae8fc;strokeColor=#6c8ebf;strokeWidth=0.5;" vertex="1" parent="39">
                    <mxGeometry x="102" y="5.5" width="130" height="25" as="geometry"/>
                </mxCell>
                <mxCell id="20" value="" style="rounded=1;whiteSpace=wrap;html=1;fillColor=#dae8fc;strokeColor=#6c8ebf;strokeWidth=0.5;" vertex="1" parent="39">
                    <mxGeometry x="362" y="5" width="130" height="25" as="geometry"/>
                </mxCell>
                <mxCell id="23" value="" style="verticalLabelPosition=bottom;verticalAlign=top;html=1;shape=mxgraph.basic.x;strokeWidth=0.5;fillColor=#808080;strokeColor=#666666;" vertex="1" parent="39">
                    <mxGeometry x="350" y="14" width="8" height="7" as="geometry"/>
                </mxCell>
                <mxCell id="26" value="" style="rounded=0;whiteSpace=wrap;html=1;fillColor=#f5f5f5;fontColor=#333333;strokeColor=none;strokeWidth=0.5;" vertex="1" parent="39">
                    <mxGeometry y="30.5" width="760" height="49.5" as="geometry"/>
                </mxCell>
                <mxCell id="29" value="" style="rounded=1;whiteSpace=wrap;html=1;strokeColor=#6c8ebf;strokeWidth=0.5;fillColor=none;" vertex="1" parent="39">
                    <mxGeometry x="102" y="40.629999999999995" width="608" height="27.37" as="geometry"/>
                </mxCell>
                <mxCell id="34" value="" style="verticalLabelPosition=bottom;verticalAlign=top;html=1;shape=mxgraph.basic.partConcEllipse;startAngle=0.25;endAngle=0.1;arcWidth=0.5;rounded=1;strokeColor=#666666;strokeWidth=0.5;fillColor=none;" vertex="1" parent="39">
                    <mxGeometry x="70" y="44.31999999999999" width="20" height="20" as="geometry"/>
                </mxCell>
                <mxCell id="33" value="" style="endArrow=open;html=1;strokeColor=#CCCCCC;strokeWidth=3;startSize=0;endFill=0;" edge="1" parent="39">
                    <mxGeometry width="50" height="50" relative="1" as="geometry">
                        <mxPoint x="42" y="53.97000000000003" as="sourcePoint"/>
                        <mxPoint x="62" y="53.97" as="targetPoint"/>
                    </mxGeometry>
                </mxCell>
                <mxCell id="40" value="" style="endArrow=open;html=1;strokeColor=#CCCCCC;strokeWidth=3;startSize=0;endFill=0;" edge="1" parent="1">
                    <mxGeometry width="50" height="50" relative="1" as="geometry">
                        <mxPoint x="72.99999999999989" y="93.97000000000003" as="sourcePoint"/>
                        <mxPoint x="52.999999999999886" y="93.97000000000003" as="targetPoint"/>
                    </mxGeometry>
                </mxCell>
                <mxCell id="42" value="Form" style="text;html=1;align=center;verticalAlign=middle;whiteSpace=wrap;rounded=0;strokeWidth=2;fontColor=#1E0200;" vertex="1" parent="1">
                    <mxGeometry x="65" y="245" width="60" height="30" as="geometry"/>
                </mxCell>
                <mxCell id="43" value="Setting" style="text;html=1;align=center;verticalAlign=middle;whiteSpace=wrap;rounded=0;strokeWidth=2;fontColor=#1E0200;" vertex="1" parent="1">
                    <mxGeometry x="65" y="410" width="60" height="30" as="geometry"/>
                </mxCell>
                <mxCell id="44" value="Logout" style="text;html=1;align=center;verticalAlign=middle;whiteSpace=wrap;rounded=0;strokeWidth=2;fontColor=#1E0200;" vertex="1" parent="1">
                    <mxGeometry x="65" y="450" width="60" height="30" as="geometry"/>
                </mxCell>
                <mxCell id="45" value="" style="rounded=0;whiteSpace=wrap;html=1;strokeColor=none;strokeWidth=2;fillColor=#f5f5f5;fontColor=#333333;" vertex="1" parent="1">
                    <mxGeometry x="150" y="140" width="650" height="40" as="geometry"/>
                </mxCell>
                <mxCell id="51" value="" style="rounded=0;whiteSpace=wrap;html=1;strokeColor=#666666;strokeWidth=0.5;fillColor=#FFFFFF;" vertex="1" parent="1">
                    <mxGeometry x="170" y="200" width="420" height="300" as="geometry"/>
                </mxCell>
                <mxCell id="53" value="Recent Orders&amp;nbsp;" style="text;html=1;align=center;verticalAlign=middle;whiteSpace=wrap;rounded=0;strokeWidth=0.5;strokeColor=none;fontColor=#000000;fontStyle=1" vertex="1" parent="1">
                    <mxGeometry x="200" y="220" width="100" height="30" as="geometry"/>
                </mxCell>
                <mxCell id="54" value="User" style="text;html=1;align=center;verticalAlign=middle;whiteSpace=wrap;rounded=0;strokeWidth=0.5;strokeColor=none;fontColor=#000000;fontSize=10;" vertex="1" parent="1">
                    <mxGeometry x="180" y="260" width="100" height="30" as="geometry"/>
                </mxCell>
                <mxCell id="55" value="Date" style="text;html=1;align=center;verticalAlign=middle;whiteSpace=wrap;rounded=0;strokeWidth=0.5;strokeColor=none;fontColor=#000000;fontSize=10;" vertex="1" parent="1">
                    <mxGeometry x="313.5" y="260" width="100" height="30" as="geometry"/>
                </mxCell>
                <mxCell id="56" value="Status" style="text;html=1;align=center;verticalAlign=middle;whiteSpace=wrap;rounded=0;strokeWidth=0.5;strokeColor=none;fontColor=#000000;fontSize=10;" vertex="1" parent="1">
                    <mxGeometry x="440" y="260" width="100" height="30" as="geometry"/>
                </mxCell>
                <mxCell id="57" value="John Doe" style="text;html=1;strokeColor=none;fillColor=none;align=center;verticalAlign=middle;whiteSpace=wrap;rounded=0;strokeWidth=0.5;fontSize=10;fontColor=#000000;" vertex="1" parent="1">
                    <mxGeometry x="202" y="300" width="60" height="30" as="geometry"/>
                </mxCell>
                <mxCell id="58" value="2024-03-01" style="text;html=1;strokeColor=none;fillColor=none;align=center;verticalAlign=middle;whiteSpace=wrap;rounded=0;strokeWidth=0.5;fontSize=10;fontColor=#000000;" vertex="1" parent="1">
                    <mxGeometry x="333.5" y="300" width="60" height="30" as="geometry"/>
                </mxCell>
                <mxCell id="59" value="2024-03-02" style="text;html=1;strokeColor=none;fillColor=none;align=center;verticalAlign=middle;whiteSpace=wrap;rounded=0;strokeWidth=0.5;fontSize=10;fontColor=#000000;" vertex="1" parent="1">
                    <mxGeometry x="333.5" y="340" width="60" height="30" as="geometry"/>
                </mxCell>
                <mxCell id="60" value="2024-03-03" style="text;html=1;strokeColor=none;fillColor=none;align=center;verticalAlign=middle;whiteSpace=wrap;rounded=0;strokeWidth=0.5;fontSize=10;fontColor=#000000;" vertex="1" parent="1">
                    <mxGeometry x="333.5" y="380" width="60" height="30" as="geometry"/>
                </mxCell>
                <mxCell id="61" value="2024-03-05" style="text;html=1;strokeColor=none;fillColor=none;align=center;verticalAlign=middle;whiteSpace=wrap;rounded=0;strokeWidth=0.5;fontSize=10;fontColor=#000000;" vertex="1" parent="1">
                    <mxGeometry x="333.5" y="422" width="60" height="30" as="geometry"/>
                </mxCell>
                <mxCell id="62" value="Mike Dow" style="text;html=1;strokeColor=none;fillColor=none;align=center;verticalAlign=middle;whiteSpace=wrap;rounded=0;strokeWidth=0.5;fontSize=10;fontColor=#000000;" vertex="1" parent="1">
                    <mxGeometry x="202" y="340" width="60" height="30" as="geometry"/>
                </mxCell>
                <mxCell id="63" value="Dan Hues" style="text;html=1;strokeColor=none;fillColor=none;align=center;verticalAlign=middle;whiteSpace=wrap;rounded=0;strokeWidth=0.5;fontSize=10;fontColor=#000000;" vertex="1" parent="1">
                    <mxGeometry x="202" y="380" width="60" height="30" as="geometry"/>
                </mxCell>
                <mxCell id="64" value="Qee Lee" style="text;html=1;strokeColor=none;fillColor=none;align=center;verticalAlign=middle;whiteSpace=wrap;rounded=0;strokeWidth=0.5;fontSize=10;fontColor=#000000;" vertex="1" parent="1">
                    <mxGeometry x="202" y="422" width="60" height="30" as="geometry"/>
                </mxCell>
                <mxCell id="65" value="Complete" style="ellipse;whiteSpace=wrap;html=1;align=center;newEdgeStyle={&quot;edgeStyle&quot;:&quot;entityRelationEdgeStyle&quot;,&quot;startArrow&quot;:&quot;none&quot;,&quot;endArrow&quot;:&quot;none&quot;,&quot;segment&quot;:10,&quot;curved&quot;:1,&quot;sourcePerimeterSpacing&quot;:0,&quot;targetPerimeterSpacing&quot;:0};treeFolding=1;treeMoving=1;rounded=1;strokeColor=#001DBC;strokeWidth=0.5;fontSize=10;fillColor=#0050ef;fontColor=#ffffff;" vertex="1" parent="1">
                    <mxGeometry x="442" y="300" width="100" height="25" as="geometry"/>
                </mxCell>
                <mxCell id="66" value="Process" style="ellipse;whiteSpace=wrap;html=1;align=center;newEdgeStyle={&quot;edgeStyle&quot;:&quot;entityRelationEdgeStyle&quot;,&quot;startArrow&quot;:&quot;none&quot;,&quot;endArrow&quot;:&quot;none&quot;,&quot;segment&quot;:10,&quot;curved&quot;:1,&quot;sourcePerimeterSpacing&quot;:0,&quot;targetPerimeterSpacing&quot;:0};treeFolding=1;treeMoving=1;rounded=1;strokeColor=#C73500;strokeWidth=0.5;fontSize=10;fillColor=#fa6800;fontColor=#000000;" vertex="1" parent="1">
                    <mxGeometry x="442" y="342.5" width="100" height="25" as="geometry"/>
                </mxCell>
                <mxCell id="67" value="Pending" style="ellipse;whiteSpace=wrap;html=1;align=center;newEdgeStyle={&quot;edgeStyle&quot;:&quot;entityRelationEdgeStyle&quot;,&quot;startArrow&quot;:&quot;none&quot;,&quot;endArrow&quot;:&quot;none&quot;,&quot;segment&quot;:10,&quot;curved&quot;:1,&quot;sourcePerimeterSpacing&quot;:0,&quot;targetPerimeterSpacing&quot;:0};treeFolding=1;treeMoving=1;rounded=1;strokeColor=#B20000;strokeWidth=0.5;fontSize=10;fillColor=#e51400;fontColor=#ffffff;" vertex="1" parent="1">
                    <mxGeometry x="442" y="385" width="100" height="25" as="geometry"/>
                </mxCell>
                <mxCell id="68" value="Complete" style="ellipse;whiteSpace=wrap;html=1;align=center;newEdgeStyle={&quot;edgeStyle&quot;:&quot;entityRelationEdgeStyle&quot;,&quot;startArrow&quot;:&quot;none&quot;,&quot;endArrow&quot;:&quot;none&quot;,&quot;segment&quot;:10,&quot;curved&quot;:1,&quot;sourcePerimeterSpacing&quot;:0,&quot;targetPerimeterSpacing&quot;:0};treeFolding=1;treeMoving=1;rounded=1;strokeColor=#001DBC;strokeWidth=0.5;fontSize=10;fillColor=#0050ef;fontColor=#ffffff;" vertex="1" parent="1">
                    <mxGeometry x="442" y="427" width="100" height="25" as="geometry"/>
                </mxCell>
                <mxCell id="72" value="" style="rounded=0;whiteSpace=wrap;html=1;strokeColor=default;strokeWidth=0.5;fontSize=10;fontColor=#000000;fillColor=#E6E6E6;" vertex="1" parent="1">
                    <mxGeometry x="204" y="291" width="328" height="2" as="geometry"/>
                </mxCell>
                <mxCell id="73" value="" style="rounded=0;whiteSpace=wrap;html=1;strokeColor=#666666;strokeWidth=0.5;fillColor=#FFFFFF;" vertex="1" parent="1">
                    <mxGeometry x="610" y="200" width="170" height="300" as="geometry"/>
                </mxCell>
                <mxCell id="74" value="News" style="text;html=1;align=center;verticalAlign=middle;whiteSpace=wrap;rounded=0;strokeWidth=0.5;strokeColor=none;fontColor=#000000;fontStyle=1" vertex="1" parent="1">
                    <mxGeometry x="645" y="224" width="100" height="30" as="geometry"/>
                </mxCell>
                <mxCell id="75" value="List" style="text;html=1;align=center;verticalAlign=middle;whiteSpace=wrap;rounded=0;strokeWidth=2;fontColor=#1E0200;" vertex="1" parent="1">
                    <mxGeometry x="65" y="277" width="60" height="30" as="geometry"/>
                </mxCell>
                <mxCell id="76" value="" style="shape=actor;whiteSpace=wrap;html=1;rounded=1;strokeColor=#0e8088;strokeWidth=0.5;fontSize=10;fillColor=#b0e3e6;" vertex="1" parent="1">
                    <mxGeometry x="755" y="145" width="25" height="30" as="geometry"/>
                </mxCell>
            </root>
        </mxGraphModel>
    </diagram>
</mxfile>